<?xml version="1.0" encoding="UTF-8" standalone="no"?>
<!-- Created with Inkscape (http://www.inkscape.org/) -->

<svg
   xmlns:dc="http://purl.org/dc/elements/1.1/"
   xmlns:cc="http://creativecommons.org/ns#"
   xmlns:rdf="http://www.w3.org/1999/02/22-rdf-syntax-ns#"
   xmlns:svg="http://www.w3.org/2000/svg"
   xmlns="http://www.w3.org/2000/svg"
   xmlns:sodipodi="http://sodipodi.sourceforge.net/DTD/sodipodi-0.dtd"
   xmlns:inkscape="http://www.inkscape.org/namespaces/inkscape"
   width="297mm"
   height="210mm"
   viewBox="0 0 1052.3622 744.09448"
   id="svg4143"
   version="1.1"
   inkscape:version="0.91 r13725"
   sodipodi:docname="okadablog.svg">
  <defs
     id="defs4145" />
  <sodipodi:namedview
     id="base"
     pagecolor="#ffffff"
     bordercolor="#666666"
     borderopacity="1.0"
     inkscape:pageopacity="0.0"
     inkscape:pageshadow="2"
     inkscape:zoom="0.7"
     inkscape:cx="473.4923"
     inkscape:cy="309.34695"
     inkscape:document-units="px"
     inkscape:current-layer="layer1"
     showgrid="false"
     inkscape:window-width="992"
     inkscape:window-height="874"
     inkscape:window-x="32"
     inkscape:window-y="100"
     inkscape:window-maximized="0" />
  <metadata
     id="metadata4148">
    <rdf:RDF>
      <cc:Work
         rdf:about="">
        <dc:format>image/svg+xml</dc:format>
        <dc:type
           rdf:resource="http://purl.org/dc/dcmitype/StillImage" />
        <dc:title />
      </cc:Work>
    </rdf:RDF>
  </metadata>
  <g
     inkscape:label="レイヤー 1"
     inkscape:groupmode="layer"
     id="layer1"
     transform="translate(0,-308.26772)">
    <path
       style="fill:#9147dd;fill-opacity:1;fill-rule:evenodd;stroke:#ff3333;stroke-width:3;stroke-linecap:butt;stroke-linejoin:miter;stroke-miterlimit:4;stroke-dasharray:none;stroke-opacity:1"
       d="m 160.60194,353.53969 l 0,300.01531 l 42.42641,-4.04061 l 1.01015,-245.46706 l 199.00005,-6.06093 l 2.72374,240.83447 l -33.17551,1.55517 l 53.68527,22.27034 l 24.24367,-20.20306 l -5.05076,-291.93408 z"
       id="path4691"
       inkscape:connector-curvature="0"
       sodipodi:nodetypes="ccccccccccc" />
    <path
       style="fill:#9147dd;fill-opacity:1;fill-rule:evenodd;stroke:#ff3333;stroke-width:3;stroke-linecap:butt;stroke-linejoin:miter;stroke-miterlimit:4;stroke-dasharray:none;stroke-opacity:1"
       d="m 235.35323,468.69709 l 124.24876,-4.04061 l 12.12184,28.28427 l -54.54824,3.03046 l -2.02031,67.68022 l 34.34519,2.0203 l 0,-40.4061 l 25.25382,-1.01015 l 4.0406,70.71068 l -155.56349,7.07107 l 3.03046,-72.73098 l 27.27412,-3.03046 l 5.05076,42.4264 l 25.25381,-5.05076 l 1.01016,-66.67007 l -52.52794,-3.03045 z"
       id="path4693"
       inkscape:connector-curvature="0"
       sodipodi:nodetypes="ccccccccccccccccc" />
    <path
       style="fill:#9147dd;fill-opacity:1;fill-rule:evenodd;stroke:#ff3333;stroke-width:3;stroke-linecap:butt;stroke-linejoin:miter;stroke-miterlimit:4;stroke-dasharray:none;stroke-opacity:1"
       d="m 247.47506,434.3519 l 22.22336,-18.18274 l 17.1726,31.31473 l -22.22336,13.13198 z"
       id="path4695"
       inkscape:connector-curvature="0"
       sodipodi:nodetypes="ccccc" />
    <path
       style="fill:#9147dd;fill-opacity:1;fill-rule:evenodd;stroke:#ff3333;stroke-width:3;stroke-linecap:butt;stroke-linejoin:miter;stroke-miterlimit:4;stroke-dasharray:none;stroke-opacity:1"
       d="m 315.15528,415.15901 l -6.06091,36.36549 l 19.1929,6.06091 l 16.16244,-30.30457 z"
       id="path4697"
       inkscape:connector-curvature="0"
       sodipodi:nodetypes="ccccc" />
    <path
       style="fill:#6447dd;fill-opacity:1;fill-rule:evenodd;stroke:#ff3333;stroke-width:3;stroke-linecap:butt;stroke-linejoin:miter;stroke-miterlimit:4;stroke-dasharray:none;stroke-opacity:1"
       d="m 512.13503,344.44832 l -2.0203,304.05591 l 50.50762,8.08123 l 3.03046,-267.69042 l 205.06097,5.05076 l 17.17259,225.26401 L 573.75433,632.3418 l -1.01015,42.42641 L 834.37369,661.63622 L 818.21125,347.47878 Z"
       id="path4699"
       inkscape:connector-curvature="0"
       sodipodi:nodetypes="ccccccccccc" />
    <path
       style="fill:#6447dd;fill-opacity:1;fill-rule:evenodd;stroke:#ff3333;stroke-width:3;stroke-linecap:butt;stroke-linejoin:miter;stroke-miterlimit:4;stroke-dasharray:none;stroke-opacity:1"
       d="m 573.75433,487.88999 l 76.7716,-2.02032 l -2.02031,-84.85281 l 35.35534,3.03046 l 7.07107,81.82236 l 65.65991,-1.01015 l 5.05077,33.33503 l -62.62946,1.01015 l -1.01015,91.92389 l -38.3858,-1.01016 l -8.08122,-87.88326 l -78.7919,-1.01016 z"
       id="path4701"
       inkscape:connector-curvature="0"
       sodipodi:nodetypes="ccccccccccccc" />
    <path
       style="fill:#db3a43;fill-opacity:0.79215688;fill-rule:evenodd;stroke:#ff3333;stroke-width:3;stroke-linecap:butt;stroke-linejoin:miter;stroke-miterlimit:4;stroke-dasharray:none;stroke-opacity:1"
       d="M 32.312564,804.06773 C 102.63255,785.59968 165.36496,783.82428 222.22124,794.97636 c 5.1013,75.58704 -44.95637,131.47446 -73.74113,194.95934 c 43.26907,7.3101 58.29446,-1.8553 69.70053,-13.13191 C 259.07069,914.87631 283.67726,847.1333 286.87101,771.74285 L 270.70857,729.31644 C 185.40959,712.8089 121.89114,723.89383 36.353174,754.57026 Z"
       id="path4703"
       inkscape:connector-curvature="0"
       sodipodi:nodetypes="cccccccc" />
    <path
       style="fill:#aaffe4;fill-opacity:1;fill-rule:evenodd;stroke:#ff3333;stroke-width:3;stroke-linecap:butt;stroke-linejoin:miter;stroke-miterlimit:4;stroke-dasharray:none;stroke-opacity:1"
       d="m 403.03855,747.49919 c -1.27077,63.11836 -7.84822,115.62337 19.1929,235.36551 l 49.49747,-13.13205 c -9.89837,-35.47697 -20.68079,-99.6833 -11.11168,-192.93904 c 48.32731,-10.08483 77.61651,-15.81946 136.37059,-5.05075 c 10.7385,50.53367 12.15825,107.7236 4.04062,171.72593 l -123.23862,-4e-5 l 10.10153,46.46695 l 157.5838,-9.0913 C 660.88667,819.4212 644.49501,782.03041 634.36348,720.22507 c -77.10831,-2.07565 -154.21662,-14.16129 -231.32493,27.27412 z"
       id="path4709"
       inkscape:connector-curvature="0"
       sodipodi:nodetypes="ccccccccccc" />
    <path
       style="fill:#ffefaa;fill-opacity:1;fill-rule:evenodd;stroke:#ff3333;stroke-width:3;stroke-linecap:butt;stroke-linejoin:miter;stroke-miterlimit:4;stroke-dasharray:none;stroke-opacity:1"
       d="m 735.37874,739.41797 c -28.15297,26.3515 -35.32882,66.68775 -48.48732,103.03556 l 44.44671,6.06091 l 39.39595,-76.77159 c 27.3762,-3.41822 46.98727,-2.95388 63.63956,-1.01015 c 13.33998,33.72375 2.19433,61.32609 -5.05074,89.90358 c -12.35977,35.09234 -39.65493,80.85282 -70.71066,129.29942 c 19.40801,7.1273 39.53138,9.9624 61.61931,1.0102 c 20.95521,-36.667 42.24627,-70.31135 60.60912,-130.30963 c 10.5908,-42.24293 8.92941,-89.08042 -2.02032,-139.40105 c -50.96386,-1.47812 -93.71751,-4.02142 -143.44161,18.18275 z"
       id="path4711"
       inkscape:connector-curvature="0"
       sodipodi:nodetypes="ccccccccccc" />
    <path
       sodipodi:type="star"
       style="fill:#db3a43;fill-opacity:0.69767439;stroke:#ff3333;stroke-width:3;stroke-linecap:round;stroke-linejoin:bevel;stroke-miterlimit:4;stroke-dasharray:none;stroke-dashoffset:0;stroke-opacity:1"
       id="path4146"
       sodipodi:sides="5"
       sodipodi:cx="59.598999"
       sodipodi:cy="411.92548"
       sodipodi:r1="62.015469"
       sodipodi:r2="31.007734"
       sodipodi:arg1="1.784165"
       sodipodi:arg2="2.4124835"
       inkscape:flatsided="false"
       inkscape:rounded="0"
       inkscape:randomized="0"
       d="M 46.467014,472.53463 L 36.474417,432.583 L -2.1017365,418.16547 L 32.806637,396.31622 L 34.597832,355.17285 L 66.164991,381.6209 L 105.84816,370.61043 L 90.449367,408.80548 L 113.18372,443.14399 L 72.099583,440.30179 Z"
       inkscape:transform-center-x="1.5298086"
       inkscape:transform-center-y="1.5782692"
       transform="matrix(0.37698535,0,0,0.81849191,299.39221,390.46883)" />
    <ellipse
       style="fill:#ffdaaa;fill-opacity:0.7116279;stroke:#ff3333;stroke-width:2.00641251;stroke-linecap:round;stroke-linejoin:bevel;stroke-miterlimit:4;stroke-dasharray:none;stroke-dashoffset:0;stroke-opacity:1"
       id="path4148"
       cx="-1189.3748"
       cy="203.22211"
       rx="43.305573"
       ry="23.471907"
       transform="matrix(-0.67880938,-0.73431452,0.54549955,-0.83811111,0,0)" />
    <ellipse
       style="fill:#ffdaaa;fill-opacity:0.43255815;stroke:#ff3333;stroke-width:1.46989167;stroke-linecap:round;stroke-linejoin:bevel;stroke-miterlimit:4;stroke-dasharray:none;stroke-dashoffset:0;stroke-opacity:1"
       id="path4148-9"
       cx="-1208.0886"
       cy="269.60864"
       rx="31.675959"
       ry="17.222357"
       transform="matrix(-0.67173677,-0.74078993,0.53813029,-0.84286167,0,0)" />
    <path
       sodipodi:type="star"
       style="fill:#db3a43;fill-opacity:0.54418606;stroke:#ff3333;stroke-width:3;stroke-linecap:round;stroke-linejoin:bevel;stroke-miterlimit:4;stroke-dasharray:none;stroke-dashoffset:0;stroke-opacity:1"
       id="path4146-8"
       sodipodi:sides="5"
       sodipodi:cx="59.598999"
       sodipodi:cy="411.92548"
       sodipodi:r1="62.015469"
       sodipodi:r2="31.007734"
       sodipodi:arg1="1.784165"
       sodipodi:arg2="2.4124835"
       inkscape:flatsided="false"
       inkscape:rounded="0"
       inkscape:randomized="0"
       d="M 46.467014,472.53463 L 36.474417,432.583 L -2.1017365,418.16547 L 32.806637,396.31622 L 34.597832,355.17285 L 66.164991,381.6209 L 105.84816,370.61043 L 90.449367,408.80548 L 113.18372,443.14399 L 72.099583,440.30179 Z"
       inkscape:transform-center-x="1.0394828"
       inkscape:transform-center-y="1.1711783"
       transform="matrix(0.25615527,0,0,0.60737303,353.39783,454.27991)" />
    <path
       style="fill:#000000;fill-opacity:0.54883716;fill-rule:evenodd;stroke:#000000;stroke-width:1px;stroke-linecap:butt;stroke-linejoin:miter;stroke-opacity:1"
       d="M 907.14286,553.79077 C 987.36201,593.85125 1005.3944,638.20777 1002.8571,708.07649 C 989.86678,785.67889 903.24336,830.32716 971.42858,918.0765 C 1011.2353,957.88322 906.50449,941.021 884.28572,979.50504 C 861.16436,1016.4498 798.54929,1023.7742 747.14286,1039.5051 L 1031.4286,1035.2194 C 1046.1798,1008.1046 1064.4091,442.94332 1029.9999,372.36221 C 1000.7971,324.95267 895.61451,336.6724 838.57143,326.64792 C 856.00913,348.45859 840.0746,358.92684 905.71429,405.21935 C 970.0881,419.98126 910.28788,513.31458 907.14286,553.79077 Z"
       id="path4180"
       inkscape:connector-curvature="0"
       sodipodi:nodetypes="cccccccccc" />
    <path
       style="fill:#ffdaaa;fill-opacity:0.43255819;stroke:#ff3333;stroke-width:3;stroke-linecap:round;stroke-linejoin:bevel;stroke-miterlimit:4;stroke-dasharray:none;stroke-dashoffset:0;stroke-opacity:1"
       id="path4147"
       sodipodi:type="arc"
       sodipodi:cx="72.85714"
       sodipodi:cy="522.36224"
       sodipodi:rx="52.857143"
       sodipodi:ry="104.28571"
       sodipodi:start="0"
       sodipodi:end="3.7250047"
       d="M 125.71428,522.36224 A 52.857143,104.28571 0 0 1 89.941522,621.05037 A 52.857143,104.28571 0 0 1 31.043958,586.15781 A 52.857143,104.28571 0 0 1 28.743207,464.91387"
       sodipodi:open="true" />
    <path
       style="fill:#ffdaaa;fill-opacity:0.43255819;stroke:#ff3333;stroke-width:3;stroke-linecap:round;stroke-linejoin:bevel;stroke-miterlimit:4;stroke-dasharray:none;stroke-dashoffset:0;stroke-opacity:1"
       id="path4149"
       sodipodi:type="arc"
       sodipodi:cx="77.857147"
       sodipodi:cy="382.36221"
       sodipodi:rx="45"
       sodipodi:ry="54.285713"
       sodipodi:start="0"
       sodipodi:end="4.1594757"
       d="M 122.85715,382.36221 A 45,54.285713 0 0 1 86.103973,435.72854 A 45,54.285713 0 0 1 35.87982,401.92234 a 45,54.285713 0 0 1 18.344738,-65.75717 l 23.632589,46.19704 z" />
    <path
       style="fill:#ffdaaa;fill-opacity:0.43255819;stroke:#ff3333;stroke-width:3;stroke-linecap:round;stroke-linejoin:bevel;stroke-miterlimit:4;stroke-dasharray:none;stroke-dashoffset:0;stroke-opacity:1"
       id="path4151"
       sodipodi:type="arc"
       sodipodi:cx="82.85714"
       sodipodi:cy="885.21936"
       sodipodi:rx="61.42857"
       sodipodi:ry="41.42857"
       sodipodi:start="4.9258634"
       sodipodi:end="1.2119908"
       d="m 95.871195,844.73119 a 61.42857,41.42857 0 0 1 48.252405,37.48039 a 61.42857,41.42857 0 0 1 -39.69544,41.79805 L 82.85714,885.21936 Z" />
  </g>
</svg>
