<?xml version="1.0" encoding="UTF-8" standalone="no"?>
<!-- Created with Inkscape (http://www.inkscape.org/) -->

<svg
   xmlns:dc="http://purl.org/dc/elements/1.1/"
   xmlns:cc="http://creativecommons.org/ns#"
   xmlns:rdf="http://www.w3.org/1999/02/22-rdf-syntax-ns#"
   xmlns:svg="http://www.w3.org/2000/svg"
   xmlns="http://www.w3.org/2000/svg"
   xmlns:sodipodi="http://sodipodi.sourceforge.net/DTD/sodipodi-0.dtd"
   xmlns:inkscape="http://www.inkscape.org/namespaces/inkscape"
   width="297mm"
   height="210mm"
   viewBox="0 0 1052.3622 744.09448"
   id="svg4143"
   version="1.1"
   inkscape:version="0.91 r13725"
   sodipodi:docname="okadablog2.svg">
  <defs
     id="defs4145" />
  <sodipodi:namedview
     id="base"
     pagecolor="#ffffff"
     bordercolor="#666666"
     borderopacity="1.0"
     inkscape:pageopacity="0.0"
     inkscape:pageshadow="2"
     inkscape:zoom="0.98994949"
     inkscape:cx="312.74956"
     inkscape:cy="390.91021"
     inkscape:document-units="px"
     inkscape:current-layer="layer1"
     showgrid="false"
     inkscape:window-width="1858"
     inkscape:window-height="1057"
     inkscape:window-x="-8"
     inkscape:window-y="-8"
     inkscape:window-maximized="1" />
  <metadata
     id="metadata4148">
    <rdf:RDF>
      <cc:Work
         rdf:about="">
        <dc:format>image/svg+xml</dc:format>
        <dc:type
           rdf:resource="http://purl.org/dc/dcmitype/StillImage" />
        <dc:title />
      </cc:Work>
    </rdf:RDF>
  </metadata>
  <g
     inkscape:label="レイヤー 1"
     inkscape:groupmode="layer"
     id="layer1"
     transform="translate(0,-308.26772)">
    <path
       style="fill:#9147dd;fill-rule:evenodd;stroke:#ff3333;stroke-width:3;stroke-linecap:butt;stroke-linejoin:miter;stroke-opacity:1;stroke-miterlimit:4;stroke-dasharray:none;fill-opacity:1"
       d="M 202.03051,373.53969 L 202.03051,673.555 L 244.45692,669.51439 L 245.46707,424.04733 L 444.46712,417.9864 L 447.19086,658.82087 L 414.01535,660.37604 L 467.70062,682.64638 L 491.94429,662.44332 L 486.89353,370.50924 Z"
       id="path4691"
       inkscape:connector-curvature="0"
       sodipodi:nodetypes="ccccccccccc" />
    <path
       style="fill:#9147dd;fill-rule:evenodd;stroke:#ff3333;stroke-width:3;stroke-linecap:butt;stroke-linejoin:miter;stroke-opacity:1;stroke-miterlimit:4;stroke-dasharray:none;fill-opacity:1"
       d="M 276.7818,488.69709 L 401.03056,484.65648 L 413.1524,512.94075 L 358.60416,515.97121 L 356.58385,583.65143 L 390.92904,585.67173 L 390.92904,545.26563 L 416.18286,544.25548 L 420.22346,614.96616 L 264.65997,622.03723 L 267.69043,549.30625 L 294.96455,546.27579 L 300.01531,588.70219 L 325.26912,583.65143 L 326.27928,516.98136 L 273.75134,513.95091 Z"
       id="path4693"
       inkscape:connector-curvature="0"
       sodipodi:nodetypes="ccccccccccccccccc" />
    <path
       style="fill:#9147dd;fill-rule:evenodd;stroke:#ff3333;stroke-width:3;stroke-linecap:butt;stroke-linejoin:miter;stroke-opacity:1;stroke-miterlimit:4;stroke-dasharray:none;fill-opacity:1"
       d="M 288.90363,454.3519 L 311.12699,436.16916 L 328.29959,467.48389 L 306.07623,480.61587 Z"
       id="path4695"
       inkscape:connector-curvature="0"
       sodipodi:nodetypes="ccccc" />
    <path
       style="fill:#9147dd;fill-rule:evenodd;stroke:#ff3333;stroke-width:3;stroke-linecap:butt;stroke-linejoin:miter;stroke-opacity:1;stroke-miterlimit:4;stroke-dasharray:none;fill-opacity:1"
       d="M 356.58385,435.15901 L 350.52294,471.5245 L 369.71584,477.58541 L 385.87828,447.28084 Z"
       id="path4697"
       inkscape:connector-curvature="0"
       sodipodi:nodetypes="ccccc" />
    <path
       style="fill:#6447dd;fill-rule:evenodd;stroke:#ff3333;stroke-width:3;stroke-linecap:butt;stroke-linejoin:miter;stroke-opacity:1;stroke-miterlimit:4;stroke-dasharray:none;fill-opacity:1"
       d="M 553.5636,364.44832 L 551.5433,668.50423 L 602.05092,676.58546 L 605.08138,408.89504 L 810.14235,413.9458 L 827.31494,639.20981 L 615.1829,652.3418 L 614.17275,694.76821 L 875.80226,681.63622 L 859.63982,367.47878 Z"
       id="path4699"
       inkscape:connector-curvature="0"
       sodipodi:nodetypes="ccccccccccc" />
    <path
       style="fill:#6447dd;fill-rule:evenodd;stroke:#ff3333;stroke-width:3;stroke-linecap:butt;stroke-linejoin:miter;stroke-opacity:1;stroke-miterlimit:4;stroke-dasharray:none;fill-opacity:1"
       d="M 615.1829,507.88999 L 691.9545,505.86967 L 689.93419,421.01686 L 725.28953,424.04732 L 732.3606,505.86968 L 798.02051,504.85953 L 803.07128,538.19456 L 740.44182,539.20471 L 739.43167,631.1286 L 701.04587,630.11844 L 692.96465,542.23518 L 614.17275,541.22502 Z"
       id="path4701"
       inkscape:connector-curvature="0"
       sodipodi:nodetypes="ccccccccccccc" />
    <path
       style="fill:#aad2ff;fill-opacity:1;fill-rule:evenodd;stroke:#ff3333;stroke-width:3;stroke-linecap:butt;stroke-linejoin:miter;stroke-miterlimit:4;stroke-dasharray:none;stroke-opacity:1"
       d="m 107.07617,824.06773 c 70.31998,-18.46805 133.05239,-20.24345 189.90867,-9.09137 c 5.1013,75.58704 -44.95637,131.47446 -73.74113,194.95934 c 43.26907,7.3101 58.29446,-1.8553 69.70053,-13.13191 C 333.83429,934.87631 358.44086,867.1333 361.63461,791.74285 L 345.47217,749.31644 C 260.17319,732.8089 196.65474,743.89383 111.11678,774.57026 Z"
       id="path4703"
       inkscape:connector-curvature="0"
       sodipodi:nodetypes="cccccccc" />
    <path
       style="fill:#aad2ff;fill-rule:evenodd;stroke:#ff3333;stroke-width:3;stroke-linecap:butt;stroke-linejoin:miter;stroke-opacity:1;stroke-miterlimit:4;stroke-dasharray:none;fill-opacity:1"
       d="M 359.61431,730.12355 L 382.84782,785.68193 L 417.193,762.44843 L 374.76659,716.99156 Z"
       id="path4705"
       inkscape:connector-curvature="0"
       sodipodi:nodetypes="ccccc" />
    <path
       style="fill:#aad2ff;fill-rule:evenodd;stroke:#ff3333;stroke-width:3;stroke-linecap:butt;stroke-linejoin:miter;stroke-opacity:1;stroke-miterlimit:4;stroke-dasharray:none;fill-opacity:1"
       d="M 387.89858,708.91034 L 423.25392,749.31644 L 430.32498,725.07278 L 408.10163,693.75805 Z"
       id="path4707"
       inkscape:connector-curvature="0"
       sodipodi:nodetypes="ccccc" />
    <path
       style="fill:#aaffe4;fill-opacity:1;fill-rule:evenodd;stroke:#ff3333;stroke-width:3;stroke-linecap:butt;stroke-linejoin:miter;stroke-miterlimit:4;stroke-dasharray:none;stroke-opacity:1"
       d="m 451.53819,767.49919 c -1.27077,63.11836 -7.84822,115.62337 19.1929,235.36551 l 49.49747,-13.13205 c -9.89837,-35.47697 -20.68079,-99.6833 -11.11168,-192.93904 c 48.32731,-10.08483 77.61651,-15.81946 136.37059,-5.05075 c 10.7385,50.53367 12.15825,107.7236 4.04062,171.72593 l -123.23862,-4e-5 l 10.10153,46.46695 l 157.5838,-9.0913 C 709.38631,839.4212 692.99465,802.03041 682.86312,740.22507 C 605.75481,738.14942 528.6465,726.06378 451.53819,767.49919 Z"
       id="path4709"
       inkscape:connector-curvature="0"
       sodipodi:nodetypes="ccccccccccc" />
    <path
       style="fill:#ffefaa;fill-opacity:1;fill-rule:evenodd;stroke:#ff3333;stroke-width:3;stroke-linecap:butt;stroke-linejoin:miter;stroke-miterlimit:4;stroke-dasharray:none;stroke-opacity:1"
       d="m 776.80731,759.41797 c -28.15297,26.3515 -35.32882,66.68775 -48.48732,103.03556 l 44.44671,6.06091 l 39.39595,-76.77159 c 27.3762,-3.41822 46.98727,-2.95388 63.63956,-1.01015 c 13.33998,33.72375 2.19433,61.32609 -5.05074,89.90358 c -12.35977,35.09234 -39.65493,80.85282 -70.71066,129.29942 c 19.40801,7.1273 39.53138,9.9624 61.61931,1.0102 c 20.95521,-36.667 42.24627,-70.31135 60.60912,-130.30963 c 10.5908,-42.24293 8.92941,-89.08042 -2.02032,-139.40105 c -50.96386,-1.47812 -93.71751,-4.02142 -143.44161,18.18275 z"
       id="path4711"
       inkscape:connector-curvature="0"
       sodipodi:nodetypes="ccccccccccc" />
    <path
       style="fill:#ffefaa;fill-rule:evenodd;stroke:#ff3333;stroke-width:3;stroke-linecap:butt;stroke-linejoin:miter;stroke-opacity:1;stroke-miterlimit:4;stroke-dasharray:none;fill-opacity:1"
       d="M 921.25912,706.89003 L 939.44187,747.29614 L 968.73627,736.18446 L 939.44187,676.58546 Z"
       id="path4713"
       inkscape:connector-curvature="0"
       sodipodi:nodetypes="ccccc" />
    <path
       style="fill:#ffefaa;fill-rule:evenodd;stroke:#ff3333;stroke-width:3;stroke-linecap:butt;stroke-linejoin:miter;stroke-opacity:1;stroke-miterlimit:4;stroke-dasharray:none;fill-opacity:1"
       d="M 951.5637,682.64637 L 981.86825,722.04233 L 999.0409,712.95095 L 970.75661,659.41286 Z"
       id="path4715"
       inkscape:connector-curvature="0"
       sodipodi:nodetypes="ccccc" />
  </g>
</svg>
