<svg xmlns="http://www.w3.org/2000/svg" width="614.8097480664497" height="431.48733290560483"><path d="M 114.7831612768616,23.526567067825212 L 124.18308840226155,115.30057144803189 L 146.49898307735492,123.13867404611159 L 138.96156205274698,46.43604210920199 L 237.6349602651181,33.28312690611169 L 251.25925381948866,152.9348874451295 L 237.29600738265992,155.02968278526 L 258.74239321628505,162.5623842507124 L 262.6745726423501,163.74075583581657 L 273.7040579619163,152.45668539587336 L 256.31899796837814,7.506645728658768 Z" style="fill:#9147dd;fill-opacity:1;stroke:#ff3333;stroke-width:3;stroke-opacity:1;stroke-linecap:butt;stroke-linejoin:miter;stroke-dasharray:none;"/><path d="M 108.78054543174127,125.67495686313413 L 107.02773241788891,183.4018660084862 L 128.29248129725485,182.02631020716208 L 129.86614390253396,136.39095166606256 Z" style="fill:#9147dd;fill-opacity:1;stroke:#ff3333;stroke-width:3;stroke-opacity:1;stroke-linecap:butt;stroke-linejoin:miter;stroke-dasharray:none;"/><path d="M 215.41736316994806,179.57413828255594 L 212.93328040105186,179.6829670705724 L 235.95489587620142,189.31574015452338 Z" style="fill:#9147dd;fill-opacity:1;stroke:#ff3333;stroke-width:3;stroke-opacity:1;stroke-linecap:butt;stroke-linejoin:miter;stroke-dasharray:none;"/><path d="M 155.72619641230625,71.07287199543904 L 217.45813741244257,63.81424381698018 L 224.69151942039687,77.39411562534524 L 197.64273809581695,81.20685382542626 L 199.49351602659448,115.01141089968878 L 216.69007905002684,114.56796728698926 L 214.9842131036419,94.43706440918805 L 227.52338459576148,92.86762654965337 L 232.52173551866088,127.92612290441953 L 188.51201329183712,133.6780458394471 L 154.5898339382762,121.09111693359407 L 153.75554385209483,101.65305102667685 L 167.2159644886228,98.99177244595076 L 171.52348513542586,119.9159848388167 L 183.89206505076243,116.33345711368219 L 181.58066233669055,83.07481790894312 L 155.28254398406085,83.78263008219713 Z" style="fill:#9147dd;fill-opacity:1;stroke:#ff3333;stroke-width:3;stroke-opacity:1;stroke-linecap:butt;stroke-linejoin:miter;stroke-dasharray:none;"/><path d="M 170.24126135292454,163.30859775074924 L 136.7707770253978,164.02017509519538 L 137.8848525919405,147.11576466113002 Z" style="fill:#9147dd;fill-opacity:1;stroke:#ff3333;stroke-width:3;stroke-opacity:1;stroke-linecap:butt;stroke-linejoin:miter;stroke-dasharray:none;"/><path d="M 157.8468818555344,57.42421468028444 L 165.86860906704402,45.517311915777356 L 178.60131642311282,58.03752716224722 L 169.85210897829472,67.52610061614637 Z" style="fill:#9147dd;fill-opacity:1;stroke:#ff3333;stroke-width:3;stroke-opacity:1;stroke-linecap:butt;stroke-linejoin:miter;stroke-dasharray:none;"/><path d="M 185.51872000901648,45.99334135606204 L 187.72306396338527,64.2946183872664 L 197.7844479489183,64.50452885671518 L 201.27919363216648,47.69130162280664 Z" style="fill:#9147dd;fill-opacity:1;stroke:#ff3333;stroke-width:3;stroke-opacity:1;stroke-linecap:butt;stroke-linejoin:miter;stroke-dasharray:none;"/><path d="M 286.067515,22.224160000000012 L 285.057365,174.252115 L 310.311175,178.29273 L 311.82640499999997,44.44752 L 414.35688999999996,46.97290000000001 L 422.94318499999997,159.60490500000003 L 316.877165,166.17090000000002 L 316.37209,187.38410500000003 L 447.186845,180.81811 L 439.105625,23.739389999999986 Z" style="fill:#6447dd;fill-opacity:1;stroke:#ff3333;stroke-width:3;stroke-opacity:1;stroke-linecap:butt;stroke-linejoin:miter;stroke-dasharray:none;"/><path d="M 316.877165,93.944995 L 355.262965,92.93483499999999 L 354.25281,50.508429999999976 L 371.93048,52.02365999999998 L 375.46601499999997,92.93483999999998 L 408.29596999999995,92.42976499999997 L 410.8213549999999,109.09727999999996 L 379.50662499999993,109.60235499999993 L 379.00154999999995,155.56429999999995 L 359.80864999999994,155.05921999999993 L 355.7680399999999,111.11758999999995 L 316.37208999999996,110.61250999999993 Z" style="fill:#6447dd;fill-opacity:1;stroke:#ff3333;stroke-width:3;stroke-opacity:1;stroke-linecap:butt;stroke-linejoin:miter;stroke-dasharray:none;"/><path d="M 46.156282000000004,252.033865 L 56.591321983,249.51216466500006 L 66.80386902400001,247.47994832000012 L 76.799057461,245.92592045499998 L 86.58202163200001,244.83878556000008 L 96.15789587500001,244.20724812499998 L 105.531814528,244.02001264 L 114.708911929,244.2657835949999 L 123.694322416,244.93326548000005 L 132.493180327,246.011162785 L 141.11061999999998,247.48818 L 141.08664639000003,258.5443902400001 L 139.63719932000004,269.09150312000014 L 136.99157443,279.2114098799999 L 133.37906736000002,288.98600176 L 129.02897375,298.49717 L 124.17058924,307.82680584 L 119.03320946999999,317.05680051999997 L 113.84613008,326.26904528000006 L 108.83864671,335.54543136 L 104.240055,344.96785 L 110.31907248000002,345.82441464500005 L 115.62465264000001,346.2298071600002 L 120.23066856,346.227120415 L 124.21099332,345.85944728000004 L 127.6395,345.169880625 L 130.59006168,344.20151332 L 133.13655144,342.9974382349999 L 135.35284236,341.60074824000003 L 137.31280752,340.0545362050001 L 139.09032,338.401895 L 144.97701063000002,329.0246240950001 L 150.35980884000003,319.4673915600001 L 155.22332661,309.72470166499994 L 159.55217592000002,299.79105868000005 L 163.33096875,289.66096687499993 L 166.54431707999998,279.32893052 L 169.17683289,268.78945388499994 L 171.21312816000002,258.03704124 L 172.63781487,247.06619685500004 L 173.435505,235.871425 L 165.354285,214.65821999999997 L 152.864245927,212.5919755650001 L 140.89622261600005,211.32950232000007 L 129.31881492899998,210.84679735499992 L 118.000622728,211.11985776 L 106.810245875,212.124680625 L 95.61628423199998,213.83726303999993 L 84.28733766099998,216.23360209499992 L 72.692006024,219.28969488000007 L 60.698889183000006,222.981538485 L 48.176587,227.28512999999998 Z" style="fill:#db3a43;fill-opacity:0.79215688;stroke:#ff3333;stroke-width:3;stroke-opacity:1;stroke-linecap:butt;stroke-linejoin:miter;stroke-dasharray:none;"/><path d="M 229.72635349260023,230.39367584896547 L 229.3185785333814,239.73562212133015 L 228.86981055548642,248.99201848819914 L 228.49288466945924,258.3983454981164 L 228.30063598584388,268.1900836996265 L 228.40589961518418,278.60271364127345 L 228.92151066802404,289.87171587160134 L 229.96030425490747,302.23257093915464 L 231.63511548637848,315.9207593924774 L 234.05877947298077,331.1717617801137 L 237.34413132525845,348.2210586506079 L 262.1996956760034,342.07179127905647 L 260.80916372022335,336.29496600930986 L 259.4703092955766,329.6560463828673 L 258.24684628142137,322.1551427923197 L 257.2024885571167,313.7923656302579 L 256.4009500020209,304.56782528927243 L 255.9059444954928,294.48163216195417 L 255.78118591689105,283.533896640894 L 256.09038814557414,271.72472911868255 L 256.8972650609008,259.0542399879104 L 258.2655305422296,245.52253964116858 L 265.2765389185389,244.1987575067927 L 271.8591676798525,243.03476567189233 L 278.1582926605186,242.069463266008 L 284.31878969488605,241.34174941868127 L 290.48553461730296,240.89052325945272 L 296.80340326211797,240.75468391786336 L 303.41727146367936,240.97313052345416 L 310.47201505633575,241.58476220576603 L 318.1125098744354,242.62847809433998 L 326.4836317523267,244.1431773187168 L 327.8252688799194,251.84677959161155 L 328.8833641296793,259.7458015718388 L 329.6572538337553,267.8407005929441 L 330.1462743242964,276.13193398847335 L 330.34976193345153,284.61995909197196 L 330.2670529933697,293.30523323698577 L 329.8974838361997,302.1882137570603 L 329.2403907940907,311.2693579857413 L 328.29511019919136,320.5491232565742 L 327.0609783836508,330.0279669031049 L 265.4503672253137,328.99261306373916 L 270.1100480498029,352.30767176567554 L 348.96720183947883,349.0865328795203 L 351.19747512049247,326.6936277252623 L 352.5329242784677,307.56177941403934 L 353.09520575600123,291.24762856269166 L 353.0059759956897,277.30781578805966 L 352.3868914401297,265.29898170698317 L 351.3596085319178,254.77776693630224 L 350.0457837136506,245.300812092857 L 349.34441604773133,241.0908072348294 L 298.90940539519,216.31320989036698 L 287.801064834475,216.3906224935054 L 276.2208643413118,217.12382077259974 L 264.6264953253083,218.70015903281933 L 253.014755421699,221.3102034890378 L 241.38244226571814,225.14452035612868 Z" style="fill:#aaffe4;fill-opacity:1;stroke:#ff3333;stroke-width:3;stroke-opacity:1;stroke-linecap:butt;stroke-linejoin:miter;stroke-dasharray:none;"/><path d="M 353.2805885457352,228.96536886371004 L 352.5211225895809,224.29637642432283 L 351.0325863336572,215.57209820630976 L 349.6235716036003,206.56230423926866 L 338.06865297175665,205.8940356136783 L 326.5159977441011,205.1160837592114 L 314.9616737110428,204.41900122798688 L 303.4017486629915,203.99334057212403 L 302.94084596742067,203.99478723581652 Z" style="fill:#aaffe4;fill-opacity:1;stroke:#ff3333;stroke-width:3;stroke-opacity:1;stroke-linecap:butt;stroke-linejoin:miter;stroke-dasharray:none;"/><path d="M 400.2480477016681,216.4959914030792 L 396.6842982239102,220.96047356210397 L 393.69741924707336,225.7438298695896 L 391.2023378830838,230.79903494377385 L 389.1139812438683,236.07906340289486 L 387.34727644135273,241.53688986519055 L 386.472934506539,244.73031772821776 L 409.9864862934762,253.4951893005413 L 419.2053711209417,231.13649590803274 L 423.1461738202556,230.35123077739175 L 426.8782576701884,229.69298243005716 L 430.4153940561076,229.1533702346445 L 433.7713543633812,228.72401355977001 L 436.9599099773765,228.39653177404907 L 439.99483228346116,228.16254424609735 L 442.88989266700287,228.01367034453068 L 445.6588625133693,227.94152943796476 L 448.3155132079278,227.93774089501517 L 450.87361613604617,227.99392408429773 L 452.928095715554,232.81040471970496 L 454.32193665807176,237.51895638162344 L 455.1417699959238,242.13373205476884 L 455.47422676143515,246.6688847238573 L 455.40593798693016,251.13856737360427 L 455.02353470473315,255.5569329887255 L 454.41364794716884,259.93813455393683 L 453.66290874656187,264.2963250539541 L 452.85794813523665,268.6456574734929 L 452.7197947568979,269.4243846826893 L 476.05072173084307,278.1211813403296 L 477.7555235411348,270.86375319762294 L 478.6257614662735,264.364375505306 L 479.1274050531545,257.7607083458847 L 479.2695917683749,251.05533699600335 L 479.0614590785327,244.25084673230677 L 478.5121444502253,237.34982283143933 L 477.63078535005025,230.35485057004536 L 476.4265192446053,223.26851522476952 L 474.9084836004877,216.0934020722562 L 473.0858158842952,208.83209638914988 L 470.9676535626253,201.4871834520951 L 463.4459355775289,201.8876499981272 L 456.128062604826,202.3167903207128 L 448.9750725481189,202.85555294106638 L 441.9480033110106,203.5848863804029 L 435.0078927971032,204.58573915993685 L 428.1157789099992,205.93905980088277 L 421.23269955330125,207.72579682445536 L 414.3196926306118,210.02689875186934 L 407.3377960455333,212.92331410433906 Z" style="fill:#ffefaa;fill-opacity:1;stroke:#ff3333;stroke-width:3;stroke-opacity:1;stroke-linecap:butt;stroke-linejoin:miter;stroke-dasharray:none;"/><path d="M 380.017413754564,249.49093886385424 L 379.28024019463714,251.8623251393146 L 377.7087683059174,257.48429823153634 L 376.2024371661317,263.1452398248937 L 374.67782894247324,268.7952475348251 L 373.05152580213553,274.3844189767692 L 395.3964298769362,276.3251474098599 L 403.2180227062702,259.05346131278566 Z" style="fill:#ffefaa;fill-opacity:1;stroke:#ff3333;stroke-width:3;stroke-opacity:1;stroke-linecap:butt;stroke-linejoin:miter;stroke-dasharray:none;"/><path d="M 442.4929035567566,292.7031445348781 L 441.3482532174731,296.1497802219728 L 438.9438764630237,301.4307813682289 L 436.10740587035536,306.98161606842456 L 432.8737857373667,312.78046233245317 L 429.27796036195616,318.8054981702089 L 425.3548740420221,325.034901591585 L 421.139471075463,331.44685060647544 L 416.6666957601772,338.01952322477365 L 411.97149239406326,344.73109745637333 L 407.08880527501947,351.5597513111681 L 402.05357870094423,358.4836627990517 L 404.90847024566705,359.6638579497479 L 407.7978970708737,360.69465519689743 L 410.7269933278515,361.55384477435075 L 413.700893167888,362.2192169159589 L 416.72473074227025,362.66856185557214 L 419.80364020228564,362.87966982704125 L 422.94275569922127,362.8303310642169 L 426.14721138436465,362.49833580094986 L 429.422141409003,361.8614742710904 L 432.77267992442347,360.89753670848944 L 436.2523384811271,355.6337037724413 L 439.73212176542893,350.37243325503704 L 443.2077191739452,345.02515791312123 L 446.67482010329184,339.5033105035396 L 450.1291139500847,333.7183237831363 L 453.56629011093975,327.5816305087568 L 456.98203798247295,321.0046634372458 L 460.3720469613002,313.89885532544844 L 463.73200644403755,306.17563893020946 L 464.32160897630416,304.6812097072889 Z" style="fill:#ffefaa;fill-opacity:1;stroke:#ff3333;stroke-width:3;stroke-opacity:1;stroke-linecap:butt;stroke-linejoin:miter;stroke-dasharray:none;"/><path d="M 188.45479676812243,238.61730092492166 L 186.57126542939545,222.26725795176503 L 179.29994306496985,216.36694211817388 L 185.87991576588396,207.42522493589013 L 186.21754290288058,190.58746718832174 L 192.1677211449409,201.4112246684595 L 199.64770782222797,196.90523435831062 L 196.7451481378867,212.53640407183343 L 201.03040714925098,226.58930039006043 L 193.28634826605452,225.42614153675947 Z" style="fill:#db3a43;fill-opacity:0.69767439;stroke:#ff3333;stroke-width:3;stroke-opacity:1;stroke-linecap:round;stroke-linejoin:bevel;stroke-dasharray:none;"/><path d="M 212.6503002586319,220.6423500015144 L 211.3704720673638,208.509578718245 L 206.42972955968682,204.131169277637 L 210.9007114792635,197.49584668977326 L 211.1301234986873,185.00116003911774 L 215.17317056707628,193.03307617216348 L 220.2556970019016,189.68934490935146 L 218.28345601260705,201.28866653410216 L 221.1952181781022,211.71680896629482 L 215.93325907512622,210.8536711533618 Z" style="fill:#db3a43;fill-opacity:0.54418606;stroke:#ff3333;stroke-width:3;stroke-opacity:1;stroke-linecap:round;stroke-linejoin:bevel;stroke-dasharray:none;"/><path d="M 488.12520570352126,121.41902854622948 L 499.1737128365244,127.63360644315394 L 508.47932310453774,134.02021426124708 L 516.1661300097277,140.64396541206773 L 522.358227054261,147.56997330717505 L 527.1797077403038,154.8633513581276 L 530.7546655700229,162.58921297648442 L 533.2071940455844,170.8126715738043 L 534.6613866691551,179.5988405616463 L 535.2413369429014,189.01283335156901 L 535.0711383689896,199.11976335513145 L 532.0008959617156,210.26847826016638 L 527.4160409182956,220.63885590393477 L 521.9991657793064,230.46711148861516 L 516.4328630853249,239.98946021638645 L 511.39972537692756,249.4421172894272 L 507.58234519469164,259.06129790991594 L 505.66331507919386,269.08321728003114 L 506.325227571011,279.7440906019517 L 510.2506752107197,291.28013307785614 L 518.1222505388971,303.92755990992293 L 519.0108933763029,305.13139921325745 L 552.6190016254826,321.4328186687295 L 554.6148141500751,292.0301818634193 L 556.6423446585474,250.5926662290494 L 558.1449896164013,205.39883862238062 L 558.9179527876815,159.544383190982 L 558.7564379364326,116.12498408242278 L 557.4556488266991,78.236325444272 L 554.8107892225254,48.97409142409859 L 550.6170628879562,31.433966169471773 L 545.2331138974018,25.105236979787364 L 537.9242402272629,20.285216026216588 L 529.0656293233783,16.735681848594325 L 519.0324686315869,14.21841298675551 L 508.19994559772715,12.495187980534837 L 496.9432476676379,11.327785369767128 L 485.63756228715783,10.477983694287303 L 474.6580769021258,9.707561493930228 L 464.3799789583802,8.77829730853054 L 455.17845590176,7.451969677923188 L 457.314072397008,10.602368876733607 L 458.79574609489725,13.54628514336622 L 459.9666271890319,16.429267037614025 L 461.1698658730164,19.39686311927045 L 462.74861234045477,22.594621948128335 L 465.0460167849511,26.168092083980937 L 468.40522940010953,30.262822086621384 L 473.1694003795345,35.024360515842744 L 479.68167991682986,40.59825593143822 L 488.28521820559985,47.130056893200816 L 496.1293916490833,50.549753014321496 L 500.7679519800741,55.89471317065218 L 502.7479895579492,62.77706343600421 L 502.61659474208625,70.80892988418923 L 500.9208578918619,79.6024385890185 L 498.2078693666535,88.7697156243035 L 495.02471952583807,97.92288706385567 L 491.9184987287929,106.6740789814865 L 489.43629733489485,114.63541745100721 Z" style="fill:#000000;fill-opacity:0.54883716;stroke:#000000;stroke-width:1;stroke-opacity:1;stroke-linecap:butt;stroke-linejoin:miter;stroke-dasharray:none;"/><path d="M 508.2163331135738,325.29468186414823 L 511.49036980662623,329.06733790632387 L 512.0069246940361,332.8541842228216 L 509.4874192854342,335.81475551248474 L 504.6340006759629,338.2386716420321 L 498.14881596076344,340.4155524781814 L 490.7340122349783,342.63501788765075 L 483.09173659374903,345.1866877371582 L 475.9241361322179,348.3601818934219 L 469.9333579455264,352.44512022315985 L 465.8215491288167,357.7311225930902 L 462.13841599921795,363.1065868240922 L 457.3729718710067,367.77850430331114 L 451.68463037369605,371.8505004529095 L 445.23280513679936,375.42620069505017 L 438.1769097898292,378.6092304518951 L 430.67635796229865,381.50321514560665 L 422.8905632837209,384.2117801983473 L 414.9789393836088,386.8385510322796 L 407.10089989147536,389.4871530695657 L 399.41585843683356,392.261211732368 L 541.0951996403979,380.5928110671796 L 542.5477560705258,368.84738641481925 L 543.0619102444936,344.0920898459703 L 543.0042882903824,338.8976003366006 Z" style="fill:#000000;fill-opacity:0.54883716;stroke:#000000;stroke-width:1;stroke-opacity:1;stroke-linecap:butt;stroke-linejoin:miter;stroke-dasharray:none;"/><path d="M 89.20774305238851,132.96256392018924 L 87.87149039383095,139.28386654374745 L 86.1552214347692,145.43625433012164 L 84.08536263763855,151.32499506147886 L 81.69378486592602,156.85941624739615 L 79.01731268408341,161.95430106905428 L 76.09715734751263,166.53120051396093 L 72.97828224802663,170.51964130268044 L 69.70871058540445,173.85821100839416 L 62.920397028711605,178.3909112760786 L 59.506178962087034,179.51524874404416 L 56.14870244939203,179.85120435520037 L 52.89966457842052,179.3936051986843 L 49.80909274189621,178.14949720428262 L 46.92457433557959,176.13803665200757 L 44.29052402647746,173.39019521131735 L 41.94749987346775,169.94828305166988 L 39.931578830442305,165.86529736736372 L 36.99969292508786,156.03648115821812 L 36.128871866164545,150.4419906652749 L 35.67474687747038,144.50677670494096 L 35.64431039573746,138.32222735129798 L 36.03803106985797,131.98356984607125 L 36.849846544814156,125.58840432727378 L 38.06725680741998,119.2352010209332 L 39.67151665657401,113.02178403554763 L 41.637924334442296,107.04382510520372 L 44.43602098849216,100.81840645997374 L 86.56371395127215,130.6823108624715 Z" style="fill:#ffdaaa;fill-opacity:0.43255819;stroke:#ff3333;stroke-width:3;stroke-opacity:1;stroke-linecap:round;stroke-linejoin:bevel;stroke-dasharray:none;"/><path d="M 50.4725868560773,75.17526704842203 L 51.69557652569941,70.21363098872729 L 97.28223036222877,96.98014208486275 Z" style="fill:#ffdaaa;fill-opacity:0.43255819;stroke:#ff3333;stroke-width:3;stroke-opacity:1;stroke-linecap:round;stroke-linejoin:bevel;stroke-dasharray:none;"/><path d="M 91.428575,41.181105 L 91.21265573555306,44.93239503178518 L 90.56904204254636,48.61168651790362 L 89.5100866849961,52.14836417806103 L 88.05611400618088,55.47454918212702 L 86.23502984710835,58.52640264836887 L 84.08178595463386,61.24535089184167 L 81.63770915875187,63.57920961878537 L 78.94970819404189,65.48318549056495 L 73.0519865,67.86427 L 69.95545995936882,68.29567919593939 L 66.83922456510007,68.20668325234388 L 63.763089664387266,67.59899025240225 L 60.78609496284103,66.48426353890542 L 57.96537738600476,64.88389786179951 L 55.35507446058721,62.82860875258592 L 53.00528526261894,60.35784300663266 L 50.96110887486867,57.51902158790327 L 47.93991,50.96117000000001 L 47.02087282029585,47.36800314405954 L 46.5223062860298,43.65609226816099 L 46.45377929707456,39.89667942540393 L 46.816607079886026,36.161918365789774 L 47.603825944593055,32.523489701978406 L 48.80032693787335,29.05122515588684 L 50.383145826439275,25.811767290722827 L 52.32190384553158,22.867290451981148 L 57.112279,18.082584999999995 L 68.9285735,41.181105 Z" style="fill:#ffdaaa;fill-opacity:0.43255819;stroke:#ff3333;stroke-width:3;stroke-opacity:1;stroke-linecap:round;stroke-linejoin:bevel;stroke-dasharray:none;"/><path d="M 77.9355975,272.365595 L 81.72754419081247,273.0946306930042 L 85.3497562126469,274.14528874761544 L 88.74253685089485,275.50025354739296 L 91.84997058866507,277.13719427722447 L 94.6208446355714,279.02913295156117 L 97.00949295213381,281.14488903143473 L 98.97654885965036,283.44959330264123 L 100.48959383197682,285.9052625460025 L 102.0618,291.10578999999996 L 102.09504988998347,293.7649394537037 L 101.62289374873255,296.4050493835147 L 100.6531130548116,298.9826088466928 L 99.20169050339837,301.45513777793997 L 97.29254659977694,303.7818870919486 L 94.95714543191409,305.92451025813295 L 92.23397611927535,307.847695279502 L 89.16791848398351,309.51974666019794 L 82.21408000000001,312.00481499999995 L 71.42857000000001,292.60968 Z" style="fill:#ffdaaa;fill-opacity:0.43255819;stroke:#ff3333;stroke-width:3;stroke-opacity:1;stroke-linecap:round;stroke-linejoin:bevel;stroke-dasharray:none;"/><path d="M 474.41005548599986,185.62628306131694 L 477.1077460367682,183.3649809166784 L 480.98012170332356,182.881429209707 L 485.64812737499585,184.2229613505839 L 490.65482613273366,187.25825882635587 L 495.51012741840816,191.69020557193357 L 499.7387605133045,197.08497176067095 L 502.9267973474748,202.91448009046826 L 504.7621706632318,208.60809766943208 L 505.0652213326315,213.60849353916706 L 503.8062846446747,217.42619411213695 L 501.1085940939064,219.6874962567755 L 497.23621842735093,220.17104796374696 L 492.56821275567876,218.82951582287006 L 487.56151399794095,215.79421834709797 L 482.70621271226634,211.36227160152032 L 478.4775796173701,205.96750541278288 L 475.2895427831998,200.1379970829857 L 473.4541694674427,194.44437950402187 L 473.15111879804306,189.44398363428684 Z" style="fill:#ffdaaa;fill-opacity:0.7116279;stroke:#ff3333;stroke-width:2.00641251;stroke-opacity:1;stroke-linecap:round;stroke-linejoin:bevel;stroke-dasharray:none;"/><path d="M 497.6621016411076,172.11592471033822 L 499.6147740430596,170.44730447320092 L 502.4177201296827,170.0904905839534 L 505.79656800874454,171.0804104721435 L 509.420572508025,173.32016388193802 L 512.9349908172105,176.59050814430657 L 515.9958071858058,180.5713191770201 L 518.3034075816911,184.87292746025526 L 519.6319080001197,189.0742616041818 L 519.8512655639292,192.76406575037606 L 518.94000802642,195.58115616063105 L 516.987335624468,197.24977639776836 L 514.1843895378448,197.60659028701593 L 510.80554165878306,196.6166703988257 L 507.18153715950257,194.3769169890312 L 503.667118850317,191.1065727266627 L 500.60630248172174,187.1257616939492 L 498.29870208583657,182.82415341071408 L 496.9702016674079,178.62281926678747 L 496.7508441035983,174.93301512059327 Z" style="fill:#ffdaaa;fill-opacity:0.43255815;stroke:#ff3333;stroke-width:1.46989167;stroke-opacity:1;stroke-linecap:round;stroke-linejoin:bevel;stroke-dasharray:none;"/></svg>